<svg id="Warstwa_1" data-name="Warstwa 1" xmlns="http://www.w3.org/2000/svg" viewBox="0 0 45 40"><defs><style>.cls-1{fill:#fff;}</style></defs><title>book</title><path class="cls-1" d="M43.32,13.1l-6.79,20a5.35,5.35,0,0,1-4.92,3.33H8.7a7.2,7.2,0,0,1-6.32-4.08,3.58,3.58,0,0,1-.05-2.8c.05-.44.15-.88.18-1.41,0-.35,9.24-22,9.24-22S13,2.73,16.24,2.66L36.9,2.53a3.74,3.74,0,0,1,2.9,1.24,2.89,2.89,0,0,1,.46,2.87l-7,20c-1.2,3.4-1.86,4.15-5.1,4.15H6.05a1.29,1.29,0,0,0-1,.33c-.2.27-.23.46,0,.95.51,1.28,2.27,1.54,3.67,1.54H31.17A3.82,3.82,0,0,0,34,31.91l7.27-21.35a3.15,3.15,0,0,0,.12-1.26,3.3,3.3,0,0,1,1.46.95A3,3,0,0,1,43.32,13.1ZM15.17,15.69H30.66a1.22,1.22,0,0,0,1.07-.74l.53-1.48c.15-.42-.1-.74-.56-.74H16.22a1.22,1.22,0,0,0-1.07.74l-.53,1.48C14.46,15.36,14.71,15.69,15.17,15.69Zm2.11-5.92H32.77A1.22,1.22,0,0,0,33.84,9l.53-1.48a.53.53,0,0,0-.56-.74H18.33a1.22,1.22,0,0,0-1.07.74L16.73,9C16.57,9.44,16.83,9.77,17.29,9.77Z"/></svg>