<svg id="Warstwa_1" data-name="Warstwa 1" xmlns="http://www.w3.org/2000/svg" viewBox="0 0 45 40"><defs><style>.cls-1{fill:#fff;}</style></defs><title>cool-guy</title><path class="cls-1" d="M43.92,10.44a3.78,3.78,0,0,0-5.3,0l-8.88,8.88a63.15,63.15,0,0,1-7.17,1.07,63.13,63.13,0,0,1-7.17-1.07L6.52,10.44a3.78,3.78,0,0,0-5.3,0,3.78,3.78,0,0,0,0,5.3L12.6,27.11v9.81a2.45,2.45,0,0,0,2.46,2.45l15,0a2.45,2.45,0,0,0,2.45-2.45V27.11L43.92,15.74A3.78,3.78,0,0,0,43.92,10.44Z"/><path class="cls-1" d="M22.57,18.08a8.73,8.73,0,1,0-8.73-8.73A8.71,8.71,0,0,0,22.57,18.08Z"/></svg>