<svg id="Warstwa_1" data-name="Warstwa 1" xmlns="http://www.w3.org/2000/svg" viewBox="0 0 45 40"><defs><style>.cls-1{fill:#fff;}</style></defs><title>education</title><path class="cls-1" d="M44.57,13.83,22.73,22a.83.83,0,0,1-.39,0L9.63,17.24c-1.11,1.05-1.89,3.62-2,6.77a3.06,3.06,0,0,1,1.23,2.54,3.15,3.15,0,0,1-1.13,2.5L8.81,39.16a.88.88,0,0,1-.16.58.59.59,0,0,1-.47.26H4.45A.59.59,0,0,1,4,39.74a.88.88,0,0,1-.16-.58L5,29.05A3.3,3.3,0,0,1,5.09,24,17.3,17.3,0,0,1,7,16.26L.51,13.83a.83.83,0,0,1,0-1.45L22.34,4.17a.83.83,0,0,1,.39,0l21.84,8.22a.83.83,0,0,1,0,1.45ZM34,28c.14,3-5.12,5.47-11.42,5.47S11,31,11.12,28l.32-6.75L21.68,25.1a2.53,2.53,0,0,0,1.71,0l10.24-3.87Z"/></svg>