<?xml version="1.0" encoding="utf-8"?>
<!-- Generator: Adobe Illustrator 21.1.0, SVG Export Plug-In . SVG Version: 6.00 Build 0)  -->
<svg version="1.1" id="Warstwa_1" focusable="false"
	 xmlns="http://www.w3.org/2000/svg" xmlns:xlink="http://www.w3.org/1999/xlink" x="0px" y="0px" viewBox="0 0 25 60"
	 style="enable-background:new 0 0 25 60;" xml:space="preserve">
<style type="text/css">
	.st0{fill:#696E9E;}
	.st1{fill:#FFFFFF;}
</style>
<path class="st0" d="M23.1,0.5c0.4,0,0.6,0.1,0.9,0.4s0.4,0.6,0.4,0.9V23c0,0.4-0.1,0.6-0.4,0.9c-0.3,0.3-0.6,0.4-0.9,0.4h-6V15h3.1
	l0.4-3.7H17V9.2c0-0.5,0.1-1,0.4-1.3c0.3-0.3,0.8-0.4,1.4-0.4h1.9V4.3c-0.9-0.1-1.8-0.1-2.8-0.1c-1.4,0-2.6,0.4-3.3,1.3
	s-1.3,1.9-1.3,3.5v2.7h-2.9v3.7h3.1v9.2H1.9c-0.4,0-0.6-0.1-0.9-0.4c-0.3-0.3-0.4-0.6-0.4-0.9V1.9C0.6,1.5,0.7,1.2,1,1
	s0.6-0.4,0.9-0.4L23.1,0.5L23.1,0.5z"/>
<path class="st1" d="M23.1,35.6c0.4,0,0.6,0.1,0.9,0.4s0.4,0.6,0.4,0.9v21.2c0,0.4-0.1,0.6-0.4,0.9c-0.3,0.3-0.6,0.4-0.9,0.4h-6
	v-9.2h3.1l0.4-3.7H17v-2.2c0-0.5,0.1-1,0.4-1.3s0.8-0.4,1.4-0.4h1.9v-3.2c-0.9-0.1-1.8-0.1-2.8-0.1c-1.4,0-2.6,0.4-3.3,1.3
	c-0.8,0.9-1.3,1.9-1.3,3.5v2.7h-2.9v3.7h3.1v9.2H1.9c-0.4,0-0.6-0.1-0.9-0.4c-0.3-0.3-0.4-0.6-0.4-0.9V37c0-0.4,0.1-0.6,0.4-0.9
	s0.6-0.4,0.9-0.4L23.1,35.6L23.1,35.6z"/>
</svg>
