<?xml version="1.0" encoding="utf-8"?>
<!-- Generator: Adobe Illustrator 21.1.0, SVG Export Plug-In . SVG Version: 6.00 Build 0)  -->
<svg version="1.1" id="Warstwa_1" xmlns="http://www.w3.org/2000/svg" xmlns:xlink="http://www.w3.org/1999/xlink" x="0px" y="0px"
	 viewBox="0 0 750.3 221.3" style="enable-background:new 0 0 750.3 221.3;" xml:space="preserve">
<style type="text/css">
	.st0{display:none;}
	.st1{display:inline;fill:#696E9E;}
	.st2{fill:#FFFFFF;}
</style>
<g id="Warstwa_2_3_" class="st0">
	<rect x="-331.4" y="-171" class="st1" width="1413" height="587.6"/>
</g>
<g id="Layer_1_3_">
	<title>logo</title>
	<polygon class="st2" points="502.4,29.8 502.4,107.8 475.4,107.8 475.4,136.8 494.9,136.8 497.2,136.8 532,136.8 540.4,124.4 
		540.4,83.5 540.4,29.8 	"/>
	<polygon class="st2" points="172.6,29.8 132.4,29.8 116.8,61.5 116.8,29.8 76.8,29.8 76.8,136.8 116.8,136.8 116.8,105.4 
		132.4,136.8 172.6,136.8 144.8,83.3 	"/>
	<polygon class="st2" points="722.6,29.8 691.4,29.8 719.1,83.3 691.4,136.8 722.6,136.8 750.3,83.3 	"/>
	<polygon class="st2" points="27.7,136.8 59,136.8 31.3,83.3 59,29.8 27.7,29.8 0,83.3 	"/>
	<polygon class="st2" points="682.4,7 653.4,7 624.7,138.7 653.7,138.7 	"/>
	<polygon class="st2" points="632.9,58.8 639.2,29.8 588,29.8 558.7,29.8 549.5,29.8 549.5,136.8 558.7,136.8 588,136.8 
		615.8,136.8 622.1,107.8 587.5,107.8 587.5,98.8 624.3,98.8 631.1,67.8 587.5,67.8 587.5,58.8 	"/>
	<path class="st2" d="M271.5,37.5"/>
	<path class="st2" d="M260.8,29.8h-78.2l-6.7,13.1v80.8l6.6,13.1h78.2l7.2-12.6V43.3L260.8,29.8z M229.9,107.8h-16v-49h16V107.8z"/>
	<path class="st2" d="M362,29.8h-85.1v107H362l6.9-12.6V43.3L362,29.8z M330.8,107.8h-16v-49h16V107.8z"/>
	<polygon class="st2" points="462.1,29.8 460.7,29.8 430.7,29.8 430.7,58.9 430.7,86.1 430.7,86.5 430.7,107.8 415.7,107.8 
		415.7,86.5 415.7,86.1 415.7,58.9 415.7,29.8 384.4,29.8 383.8,29.8 377.7,29.8 377.7,42.8 377.7,56.7 377.7,83.5 377.7,86.1 
		377.7,110.3 377.7,123.7 383.8,136.8 385.2,136.8 419.9,136.8 422.2,136.8 461.4,136.8 462,136.8 468.7,124.1 468.7,110.3 
		468.7,86.1 468.7,83.5 468.7,56.7 468.7,43.3 468.7,29.8 	"/>
</g>
<g>
	<path class="st2" d="M12.6,169.3v12.1h19.1v6.3H12.6v17.2H5.5v-41.9h28.2l-0.1,6.4H12.6z"/>
	<path class="st2" d="M58.4,179.4c2.2-4.3,6-6.6,11-6.6v6.6c-6.4-0.4-10.5,3.4-11,8.9v16.7h-6.9V173h6.9V179.4z"/>
	<path class="st2" d="M117.4,189c0,9.6-6.8,16.2-16.6,16.2c-9.9,0-16.7-6.6-16.7-16.2c0-9.6,6.8-16.2,16.7-16.2
		C110.6,172.8,117.4,179.3,117.4,189z M91,189c0,6.2,4,10.4,9.8,10.4c5.7,0,9.7-4.2,9.7-10.4c0-6.1-4-10.3-9.7-10.3
		C95,178.7,91,182.9,91,189z"/>
	<path class="st2" d="M167.1,185.1v19.8h-6.9V187c0-4.8-2.9-7.7-7.7-7.7c-5.3,0.1-8.6,3.7-9,8.7v17h-6.9V173h6.9v6.1
		c2.3-4.4,6.4-6.4,11.7-6.4C162.6,172.8,167.1,177.4,167.1,185.1z"/>
	<path class="st2" d="M206.3,202.9c-2.5,1.5-5.2,2.3-7.8,2.3c-4.8,0-8.9-2.8-8.9-9.3v-16.5h-4.5v-5.2h4.5v-8.7h6.8v8.7h9.4v5.2h-9.4
		v15.3c0,3.3,1.3,4.3,3.4,4.3c1.4,0,2.9-0.5,4.8-1.4L206.3,202.9z"/>
	<path class="st2" d="M223.2,189v-4.7H238v4.7H223.2z"/>
	<path class="st2" d="M286.8,191.6h-24.1c1.1,4.9,4.9,8,9.9,8c3.5,0,6.7-1.3,9-3.7l3.7,3.9c-3.1,3.4-7.7,5.4-13.2,5.4
		c-9.8,0-16.3-6.5-16.3-16.1c0-9.6,6.7-16.2,16.1-16.2C283,172.8,287.6,180.1,286.8,191.6z M280.8,186.6c-0.2-5.2-3.7-8.3-8.9-8.3
		c-5,0-8.6,3.2-9.3,8.3H280.8z"/>
	<path class="st2" d="M336.4,185.1v19.8h-6.9V187c0-4.8-2.9-7.7-7.7-7.7c-5.3,0.1-8.6,3.7-9,8.7v17h-6.9V173h6.9v6.1
		c2.3-4.4,6.4-6.4,11.7-6.4C332,172.8,336.4,177.4,336.4,185.1z"/>
	<path class="st2" d="M388,204.9h-6.9v-5.5c-2.3,3.7-6.1,5.8-11.2,5.8c-9.2,0-15.3-6.7-15.3-16.4c0-9.6,6.2-16.1,15.2-16.1
		c5.2,0,9,2.1,11.3,5.8v-18.1h6.9V204.9z M381.1,189.1c0-6.2-4-10.5-9.8-10.5c-5.8,0-9.8,4.4-9.8,10.5c0.1,6.1,4,10.4,9.8,10.4
		C377.1,199.4,381.1,195.1,381.1,189.1z"/>
	<path class="st2" d="M457.3,192.2c-0.6,0.1-1.3,0.1-1.9,0.1h-9.9v12.6h-7.1v-41.9h17c10.7,0,16.9,5.2,16.9,14.3
		c0,6.7-3.1,11.4-8.7,13.6l9.4,14h-8L457.3,192.2z M455.4,185.9c6.5,0,10.2-2.8,10.2-8.4c0-5.5-3.7-8.1-10.2-8.1h-9.9v16.6H455.4z"
		/>
	<path class="st2" d="M521.3,191.6h-24.1c1.1,4.9,4.9,8,9.9,8c3.5,0,6.7-1.3,9-3.7l3.7,3.9c-3.1,3.4-7.7,5.4-13.2,5.4
		c-9.8,0-16.3-6.5-16.3-16.1c0-9.6,6.7-16.2,16.1-16.2C517.6,172.8,522.2,180.1,521.3,191.6z M515.3,186.6c-0.2-5.2-3.7-8.3-8.9-8.3
		c-5,0-8.6,3.2-9.3,8.3H515.3z"/>
	<path class="st2" d="M566.7,178l-3.8,4.4c-2.2-2.3-5.3-3.7-9.1-3.6c-5.5,0-9.5,4.1-9.5,10.2c0,6.1,4,10.2,9.5,10.2
		c4,0,7.3-1.3,9.4-3.8l3.8,3.8c-2.9,3.8-7.5,5.9-13.5,5.9c-9.5,0-16.1-6.5-16.1-16.1c0-9.6,6.6-16.2,16.1-16.2
		C559.3,172.8,563.8,174.6,566.7,178z"/>
	<path class="st2" d="M593.7,163.9c0,2.4-1.7,4.1-4,4.1s-4-1.7-4-4.1c0-2.5,1.7-4.2,4-4.2S593.7,161.4,593.7,163.9z M586.3,204.9
		V173h6.8v31.9H586.3z"/>
	<path class="st2" d="M648.8,189.1c0,9.5-6,16.1-15.1,16.1c-5.1,0-8.9-2-11.3-5.8v17.1h-6.9V173h6.9v5.5c2.3-3.7,6.2-5.8,11.1-5.8
		C642.7,172.8,648.8,179.4,648.8,189.1z M641.9,188.8c0-5.9-4-10.3-9.7-10.3s-9.7,4.3-9.7,10.3c0,6.2,4,10.4,9.7,10.4
		S641.9,194.9,641.9,188.8z"/>
	<path class="st2" d="M696.1,191.6H672c1.1,4.9,4.9,8,9.9,8c3.5,0,6.7-1.3,9-3.7l3.7,3.9c-3.1,3.4-7.7,5.4-13.2,5.4
		c-9.8,0-16.3-6.5-16.3-16.1c0-9.6,6.7-16.2,16.1-16.2C692.3,172.8,696.9,180.1,696.1,191.6z M690.1,186.6c-0.2-5.2-3.7-8.3-8.9-8.3
		c-5,0-8.6,3.2-9.3,8.3H690.1z"/>
	<path class="st2" d="M735.9,175.9l-2.5,5.1c-2.8-1.7-6.4-2.8-9.2-2.8c-2.7,0-4.7,0.9-4.7,3.2c0,5.9,17,2.7,16.9,14.3
		c0,6.5-5.8,9.5-12.2,9.5c-4.7,0-9.6-1.6-12.8-4.4l2.5-4.9c2.8,2.5,7.2,4,10.7,4c2.9,0,5.2-1,5.2-3.4c0-6.5-16.8-2.9-16.7-14.4
		c0-6.5,5.6-9.2,11.7-9.2C728.8,172.7,733,173.9,735.9,175.9z"/>
</g>
</svg>
