<svg id="Warstwa_1" data-name="Warstwa 1" xmlns="http://www.w3.org/2000/svg" viewBox="0 0 45 40"><defs><style>.cls-1{fill:#fff;}</style></defs><title>globe</title><path class="cls-1" d="M22.5,1.64A18.69,18.69,0,1,0,41.19,20.33,18.69,18.69,0,0,0,22.5,1.64Zm2.56,29.3c-.62-.6-2.19-2-2.38-2.16-.52-.3-1-.63-1.57-.91a1.79,1.79,0,0,0-.89-.3,3.7,3.7,0,0,1-3.58-2.41,6.79,6.79,0,0,0-1.16-1.7c-.32-.43-.69-.82-1-1.25s-.5-.8-.75-1.21l-.2.1,1.32,2.73-.33.16c-.61-1.1-1.21-2.21-1.83-3.3a2.21,2.21,0,0,0-.56-.72,4.65,4.65,0,0,1-2-4.92,6.4,6.4,0,0,0,0-1,9.19,9.19,0,0,0-1.92-2.68v-.17c.33-.45.66-.91,1-1.36a17.1,17.1,0,0,1,7.31-5.43c.46-.19,1-.28,1.07.32s.46.72,1,.69a2.22,2.22,0,0,1,1,0c.68.33,1-.15,1.35-.45-.26-.49-1.41-.3-.85-1.26h.85c.4,1.08,1.72,1,2.41,2A4.77,4.77,0,0,1,24,5a3.47,3.47,0,0,1,.83-.34,7.86,7.86,0,0,1,.26,1.18,1,1,0,0,1-.67.21c-.54-.19-.79,0-1.13.43a2.77,2.77,0,0,1-1.2.79,1.56,1.56,0,0,0-.75,2.5c.09.09,2.17.72,3.06,1,.29.11.5.46.7.74s.26.56.46.79.76-.31.71-.42c-.25-.54.69-1.69.52-2.12a6.06,6.06,0,0,1-.18-1.93c0-.06.16-.14.26-.18a3.54,3.54,0,0,1,2.6,1c.56,1,1.74.27,1.88.19.17.21.41.4.48.65.32,1.15,1.51,1.31,2.23,2,.5.48.27.63-.16,1-.88.78-1.93.23-2.84.54-.46.16-.38.42.13.33a5.17,5.17,0,0,1,0,1,1.22,1.22,0,0,1-.35.71c-.64.45-1.44.59-1.85,1.46-.23.49-1.94,1.68-1.9,1.92a1.51,1.51,0,0,1-.87,1.71c-1.06.58-1,.56-.58,1.67a6.3,6.3,0,0,1,.17,1.66l-.39.11a7.64,7.64,0,0,1-.49-.95,2.13,2.13,0,0,0-2.61-1c-.19.1-2.6.57-2.61,1.74a12.07,12.07,0,0,0,.09,2.24,1.22,1.22,0,0,0,1.25.94c.62,0,.77-.36,1-.78.18-.27.66-.33,1-.48a4.13,4.13,0,0,1,0,.88c-.08.43-.24.85-.4,1.39.94-.13,1.79-.24,2,.87a1.16,1.16,0,0,1,0,.49c-.29,1.06,0,1.47,1.27,1.65-.13.24-.21.56-.36.6A.83.83,0,0,1,25.06,30.94Zm8.59,2.26a16.41,16.41,0,0,1-7.26,3.68,3.29,3.29,0,0,1-.8,0c0-.27,0-.54.05-.8,0-.08.12-.18.09-.23-.53-1.09.43-1.69.74-2.52a7.62,7.62,0,0,0,.06-2.51c.22-.18.53-.39.78-.64a2,2,0,0,1,2.58-.44,3.09,3.09,0,0,0,1.88.49c.45-.07,1,.48,1.51.81s.89.72,1.46,1.19C34.42,32.49,34,32.86,33.65,33.2Z"/></svg>