<svg id="Warstwa_1" data-name="Warstwa 1" xmlns="http://www.w3.org/2000/svg" viewBox="0 0 45 40"><defs><style>.cls-1{fill:#fff;}</style></defs><title>hand-shake</title><path class="cls-1" d="M40.4,26.7l-.05-.34c-.19-1.23-.75-3.81-1.53-4.77l-1.45-1.8-.1-.12c-.77-1-1.57-1.94-2.38-2.89-.54-.61-1.12-1.23-1.7-1.82l-1.33-1.41-.15-.17.06-.22a1.35,1.35,0,0,0-.9-1.62,1.73,1.73,0,0,0-.64-.13,1.55,1.55,0,0,0-1.14.5l-5.17,5.51a4.19,4.19,0,0,1-6.12-.08,3.05,3.05,0,0,1,0-4.11l5.58-6.16a5.49,5.49,0,0,1,4-1.75H31.9a6.39,6.39,0,0,1,4.63,2l4.11,3h2.64V26.7Z"/><path class="cls-1" d="M42.87,10.7V26.3H40.75c-.18-1.19-.74-3.89-1.62-5l-1.45-1.79c-.81-1-1.64-2-2.48-3-.55-.62-1.14-1.24-1.72-1.84l-1.33-1.41A1.74,1.74,0,0,0,31,11.17a2,2,0,0,0-2.22.47l-5.17,5.51a3.74,3.74,0,0,1-2.73,1.16h0a3.72,3.72,0,0,1-2.75-1.23,2.66,2.66,0,0,1,0-3.58l5.58-6.15a5.09,5.09,0,0,1,3.72-1.62H31.9a6,6,0,0,1,4.33,1.85L40.5,10.7Z"/><path class="cls-1" d="M19.23,36.1c-2.52,0-4.74-1.55-6.17-2.85L5.15,27.41a3,3,0,0,0-2.24-.71h-1V9.49H6.18L10.38,7a6.24,6.24,0,0,1,4.25-1.66l1.09,0,1.14,0a7.78,7.78,0,0,1,3,.48l.52.22-5,5.46a5.68,5.68,0,0,0-.05,7.65,7.44,7.44,0,0,0,10.86.15l3.45-3.65.29.29a78.77,78.77,0,0,1,5.42,6.26l1,1.21a3.46,3.46,0,0,1,.3,4.26,3.9,3.9,0,0,1-3.31,1.63,2.79,2.79,0,0,1-1-.14A4.23,4.23,0,0,1,31,31.41a4.55,4.55,0,0,1-3.08,1.16h-.3A3.87,3.87,0,0,1,25.4,34.8a4.33,4.33,0,0,1-1.6.31,4.07,4.07,0,0,1-1.2-.18A5.1,5.1,0,0,1,19.23,36.1Z"/><path class="cls-1" d="M36.37,27.41a3.5,3.5,0,0,1-3,1.46c-.69,0-.91-.13-1-.18L32,28.23l.06.59a3.43,3.43,0,0,1-1.28,2.29,4.19,4.19,0,0,1-3.19,1.05l-.2,0-.06.16a3.45,3.45,0,0,1-2,2.12,3.81,3.81,0,0,1-2.59.1l-.16-.05-.11.11a4.66,4.66,0,0,1-3.16,1.12c-2.39,0-4.52-1.49-5.9-2.74L5.39,27.08a3.37,3.37,0,0,0-2.47-.79H2.27V9.89h4l4.29-2.55a6,6,0,0,1,4-1.6l1.11,0a9.67,9.67,0,0,1,4,.43l-4.58,5a6.08,6.08,0,0,0-.06,8.19,7.84,7.84,0,0,0,11.45.16l3.17-3.35a80,80,0,0,1,5.48,6.33l.89,1.1A3.08,3.08,0,0,1,36.37,27.41Z"/></svg>