<?xml version="1.0" encoding="utf-8"?>
<!-- Generator: Adobe Illustrator 21.1.0, SVG Export Plug-In . SVG Version: 6.00 Build 0)  -->
<svg version="1.1" xmlns="http://www.w3.org/2000/svg" xmlns:xlink="http://www.w3.org/1999/xlink" x="0px" y="0px"
	 viewBox="0 0 1920 1080" style="enable-background:new 0 0 1920 1080;" xml:space="preserve">
<style type="text/css">
	.st0{display:none;}
	.st1{fill:#F0F0F0;}
	.st2{fill:#FFFFFF;}
	.st3{fill:#E8E8E8;}
	.st4{fill:#797FB8;}
	.st5{fill:#97231D;}
	.st6{fill:#727BAB;}
	.st7{fill:#039475;}
	.st8{fill:#CF4D46;}
	.st9{clip-path:url(#SVGID_4_);fill:#0DA37F;}
	.st10{fill:#F8A246;}
	.st11{fill:#F4C02E;}
	.st12{fill:#0DA37F;}
	.st13{fill:#F2F2F2;}
	.st14{fill:#62627F;}
	.st15{fill:#696F9F;}
	.st16{fill:none;stroke:#34B399;stroke-width:10.4669;stroke-miterlimit:10;}
	.st17{clip-path:url(#SVGID_6_);fill:#039475;}
	.st18{clip-path:url(#SVGID_6_);fill:#34B399;}
	.st19{fill:#FCCEA4;}
	.st20{fill:#F7CD45;}
	.st21{fill:#F4B400;}
	.st22{clip-path:url(#SVGID_8_);fill:#F9B175;}
	.st23{fill:#424254;}
	.st24{clip-path:url(#SVGID_10_);fill:#797999;}
	.st25{fill:#E6E6E6;}
	.st26{clip-path:url(#SVGID_12_);fill:#F9B175;}
	.st27{clip-path:url(#SVGID_14_);fill:#F4B400;}
	.st28{fill:#46465C;}
	.st29{fill:#555570;}
	.st30{fill:#F88A46;}
	.st31{fill:none;stroke:#A5AAD8;stroke-width:8;stroke-miterlimit:10;}
	.st32{fill:none;stroke:#EDEDED;stroke-width:5;stroke-linecap:round;stroke-miterlimit:10;}
	.st33{fill:#EDEDED;}
	.st34{fill:#CCCCCC;}
	.st35{clip-path:url(#SVGID_16_);fill:#534741;}
</style>
<g id="Warstwa_1" class="st0">
	
		<image style="display:inline;overflow:visible;" width="720" height="960" xlink:href="EBFB1E4.jpg"  transform="matrix(0 2.1729 -2.1729 0 2002.9993 -164)">
	</image>
</g>
<g id="Warstwa_5">
	<g>
		<polygon class="st1" points="1460.8,1040.3 462.3,1014 559.3,276 1910.9,9.8 		"/>
		<polygon class="st2" points="1506.2,682.1 978.1,616 996.2,254 1661.7,134.4 		"/>
		<polygon class="st3" points="1276,178.1 1217,658.8 1244.2,661.3 1314.8,165.4 		"/>
		<polygon class="st3" points="996.2,254 976.1,618.1 961.8,613 966.9,262.1 538,411.3 555.2,276.7 1906.8,10.5 1687.3,515.1 
			1661.7,134.4 		"/>
	</g>
	<polygon class="st4" points="27,275 187.5,1046.2 393,1021.1 614.3,998.8 555.3,276.4 	"/>
	<polygon class="st5" points="837.2,1024.5 705.3,1021.1 705.8,832.8 945.2,871.6 	"/>
	<polygon class="st6" points="564.6,407.2 84.5,550.2 27,275 555.3,276.4 	"/>
</g>
<g id="Warstwa_4">
	<polygon class="st7" points="1464,983.3 1163.6,967.9 1051.7,806.9 1376.8,732.8 1409.5,745.1 	"/>
</g>
<g id="Warstwa_3">
	<g>
		<defs>
			<path id="SVGID_1_" d="M1320.4,786.5l1.5-29.5c0,0-294-32.6-335.3-24c-133.8,28-426,89.6-497.9,107.3c-0.5,0.1-0.9,0.2-1.4,0.4
				l-0.1,0c-75.4,17.6-35.7,174.5-35.7,174.5l313.3,7.5c1-19.3,5.8-62.3,36.2-73.9L1320.4,786.5z"/>
		</defs>
		<use xlink:href="#SVGID_1_"  style="overflow:visible;fill:#039475;"/>
		<clipPath id="SVGID_2_">
			<use xlink:href="#SVGID_1_"  style="overflow:visible;"/>
		</clipPath>
	</g>
	<path class="st5" d="M360.3,471.4c-40.2,31.1-83.1,92.1-32.4,245.3s139.5,260.2,139.5,260.2l178.5-74.6l-99.9-163.5L360.3,471.4z"
		/>
	<path class="st8" d="M411.2,444.4c-99.9,24.7-103.8,116.8-81.1,190.8c22.7,74,29.9,127.3,63.6,114.1c79-31,103.8,105.2,103.8,105.2
		l289.4-62.3c0,0-43.4-157.7-100.5-123.3c-57.1,34.4-57.8-22.1-76.6-88.3S534.8,413.9,411.2,444.4z"/>
	<g>
		<defs>
			<path id="SVGID_3_" d="M1378.3,732.7l-373.1-22.2c-8-1.2-16.2-0.9-24.1,0.7c-72.4,15.2-450.9,94.7-515.9,110.7
				c-0.5,0.1-0.9,0.2-1.4,0.4l-0.1,0c-75.4,17.6-12.2,192.9-12.2,192.9l276.3,6.7c0,0,1-73,49.7-91.5l601.5-191.5
				C1382.4,737.8,1381.8,732.9,1378.3,732.7z"/>
		</defs>
		<use xlink:href="#SVGID_3_"  style="overflow:visible;fill:#34B399;"/>
		<clipPath id="SVGID_4_">
			<use xlink:href="#SVGID_3_"  style="overflow:visible;"/>
		</clipPath>
		<polygon class="st9" points="380.7,875.6 773.5,989.7 728.1,1022.4 451.6,1015.2 		"/>
	</g>
	<path class="st5" d="M495.7,489.3c-8.7-23.1-58.7-26.3-87.4-6.1c-14.4,10.2-39.8,49.2-21.6,77.9c6.1,9.7,35.5,46.5,35.5,46.5
		s-29.4,26.1-30.5,47c-4,79.3,37,28.1,80.9,124.3c17.5,38.3,37,32.5,37,32.5l66.4-12.2L495.7,489.3z"/>
	<path class="st10" d="M941.3,679.5l-99.7,12.2c-20.2,2.5-38.3,13.6-49.6,30.4l-22.5,34l177.2-36.7L941.3,679.5z"/>
	<path class="st10" d="M1027.6,658.3l-99.7,12.5c-20.2,2.5-38.2,13.7-49.5,30.6L855.9,735l177.2-36.8L1027.6,658.3z"/>
	<path class="st11" d="M778.3,742.4c0,0,24.5-35.1,73.6-39.5s77.1-9.5,77.1-9.5l5.5-13.3c0,0-99.3,3.5-126.3,23.1
		C795.6,712.3,778.3,742.4,778.3,742.4z"/>
	<polyline class="st12" points="826.7,744.2 973.3,734 928.3,723.1 863.5,736.7 	"/>
	<polyline class="st12" points="981.3,733.3 1038.7,731.2 1018.3,713.5 987.3,716.5 	"/>
	<polygon class="st12" points="986.3,829.9 979.4,866.1 1024.2,853.8 1012.9,824.5 	"/>
	<path class="st12" d="M875,749.7c0,0-7.1,0.8-8.5,5.8c0,0-4.7,21.5-4.7,24.2c0,2.7-4.2,9,11.5,11.3c12.7,1.9,36.6,2.8,46.7,3.5
		c2.5,0.2,10.3-0.1,12.5-1.2l27.2-6L875,749.7z"/>
</g>
<g id="Warstwa_2">
	<polygon class="st13" points="751.5,779.8 830.3,767.1 902.9,838.8 817.3,857 	"/>
	<path class="st14" d="M1072.2,603.7c-19.1,19.1-60.9,95.7-56.2,111.9c2.1,7,7.1,10.9,15.7,13.9c13.2,4.5,32.2-17.9,42.5-31.9
		c16.9-23,39.3-57.4,40.6-71.9C1114.4,582.2,1086.2,589.8,1072.2,603.7z"/>
	<path class="st15" d="M1100.5,593.6c-8.7-2.3-24.4-7.3-37.4,9.8c-13.1,17.1-31,49.3-37,52.3c-6,3-27.4,32.8-27.5,40.2
		c-0.1,7.4,17.6,26,22.7,29.2c5.1,3.2,10.6,5,10.6,5s-9.1-11.6-6.8-23.7s28.4-62,38.7-74.6c10.3-12.6,18.3-29.6,37.5-37.3"/>
	<path class="st16" d="M692,553c11.7-1.9,16.2-2.8,15.6,16s-8.9,24-23.4,24.4"/>
	<g>
		<defs>
			<path id="SVGID_5_" d="M667,535.6c14.9-0.2,25.4,3.2,26,9.1c0.6,5.8,5.5,58.7-23,58.7c-18.8,0-17,0-17,0s-21,1.9-17.5-55.8
				C636,540.2,648.7,535.8,667,535.6z"/>
		</defs>
		<use xlink:href="#SVGID_5_"  style="overflow:visible;fill:#34B399;"/>
		<clipPath id="SVGID_6_">
			<use xlink:href="#SVGID_5_"  style="overflow:visible;"/>
		</clipPath>
		<path class="st17" d="M633.9,547.9c0.2,9.1,18.2,11.7,26.8,12c14.5,0.6,24-1.5,25.8-2.9c-0.1,4.5-2.8,41.7-14.2,46.9
			c-11.5,5.2-29.8,2.6-29.8,2.6l-11.7-34.8L633.9,547.9z"/>
		<path class="st18" d="M639.8,548.7c0,0-4.5,38.6,8.9,53.9c13.4,15.2,7.3,4.3,7.3,4.3s-10.5-8-9.8-51.6
			C648.6,541.4,639.8,548.7,639.8,548.7z"/>
	</g>
	<path class="st19" d="M705.6,601.7c0,0-8.9-9.3-11.2-16.7s-1-27.8,2.5-28.9s20.3-9.5,21.2-2.6c0.9,6.9,8,36.1,7.4,43.3
		c-0.6,7.1,8.6,93.3,8.4,101.6c1.5,3.7,2.2,6.9-1.3,7.6s-20.8,9.4-89.2-13.9c-52.5-18-29.8-88.1-29.8-88.1s53.9,19,89.8,62.3
		C697.6,655.3,707.9,620.4,705.6,601.7z"/>
	<path class="st20" d="M493.6,614.5c0,0,85.2-26.6,111-15.6c40.9,17.5,109.7,162.6,135.1,163.2c-36.3,8.2-110.3,25.7-159.7,36.3
		c-29.2,6.3-66.8-56.5-66.8-56.5l-15.6-61.3L493.6,614.5z"/>
	<path class="st21" d="M502.8,574.3c0,0-31.2-6.1-31.7,35.8c-0.4,33.1,43.3,24.4,58.8,28.4c65,16.8,81.9,10.1,74-21.4
		c-6.7-26.7,1.9-29.2,1.9-29.2L502.8,574.3z"/>
	<g>
		<defs>
			<path id="SVGID_7_" d="M484.4,484.3c-11.9-4.7-13.4,9.1-12.6,15.7s8,20.6,23.8,18.2c6.1,12.6,18.8,59.6,13.4,67.8
				s85.3,15.7,85.3,15.7l8.7-62.3c0,0,7.7-0.7,9.2-13.4c0.7-5.8-3.8-9-3.8-9s-1.8-20,11.2-25.6c3.4-22.5,6.9-30.4-0.9-44.3
				c-7.9-14.1-87.5-30.8-87.5-30.8l-26.5,42.3l-23.4,21.6"/>
		</defs>
		<use xlink:href="#SVGID_7_"  style="overflow:visible;fill:#FCCEA4;"/>
		<clipPath id="SVGID_8_">
			<use xlink:href="#SVGID_7_"  style="overflow:visible;"/>
		</clipPath>
		<path class="st22" d="M488.9,486.4c0,0,12.6-7.7,8.3,1.8c-3.7,8.3-2.1,9,7.5,1.1c6.8-5.6-3.8-9.7-3.8-9.7l53.7-57.5l1.6,12.5
			l-6.4,37.8c0,0-29.7,14-9.8,58.1c8.7,19.4,5.9,63.6,5.9,63.6l-52.3,0.1l-41.3-89.9l4.9-32.6l20.4,4.4L488.9,486.4z"/>
	</g>
	<path class="st23" d="M576.9,501.6c-0.5,3.2-3.1,3.9-6.7,3.4c-3.5-0.5-6.5-2.1-6.1-5.3c0.5-3.2,3.7-5.4,7.2-4.9
		C574.9,495.3,577.4,498.3,576.9,501.6z"/>
	<path class="st21" d="M506.8,667.9c0,0,24.4,89.9,110.5,122.5l-62.7,13.4c-45.8-8.3-54.9-53.7-54.9-53.7L506.8,667.9z"/>
	<path class="st23" d="M608.2,506.1c-0.6,3.1-2.6,3.7-4.8,3.3c-2.2-0.4-3.8-1.5-3.2-4.6c0.6-3.1,3-5.4,5.2-5
		C607.6,500.1,608.8,502.9,608.2,506.1z"/>
	<path class="st14" d="M550.9,476.2c0.4,1.9,4.9-2.1,16.3-0.5c9.6,1.4,9.4,2.7,14,5.9c4.6,3.2,8-0.8,7.6-6
		c-0.4-5.2-8.2-8.3-21.3-9.6C550.8,464.3,549.7,469.9,550.9,476.2z"/>
	<path class="st14" d="M601.3,485.6c0,0-0.5-10.5,11.7-6.5c5.6,1.8,8.1,4,8.1,4c1.6,3.5,1,9.6-3,9.3c-4.1-0.3-0.4-3.6-9-4.2
		C603.4,487.8,601.3,489.9,601.3,485.6z"/>
	<g>
		<defs>
			<path id="SVGID_9_" d="M488,411.1c0,0,2.6,9.3,4.4,7c1.8-2.3-3.7-29.2,81-38.9c35.6-4.1,58.2,2.4,78.4,9.3
				c3.2,7.7,16,50.3-30.1,64.7c-11-11.1-26.5-15.5-46.9-17c-22.4-1.6-38.1,5.6-44,31.9c-22,18.7-20.3,23-20.3,23s-6,53.9,26.3,68
				c17.2-24.1,22.1-29.6,39.3-27.8c9.5,6.3,26.9,8.3,26.9,8.3c7.5,6.1,5.6,14.2,5.1,26.8c-0.4,9.4,7.5,25,10.2,35.3
				c2.7,10.3-22.4,38.8-63.1,13.1c-31.1-19.7-47.5-34.6-54.1-42.6c0,0-1.5-25.1-2.5-44c-7-22.3-9.7-41.5-9.7-41.5s-4.5-0.8-6.7-2.8
				c-8.4-17.7-5-23.9-7-32.4l6.5,3.5C481.6,454.7,478.7,429.1,488,411.1z"/>
		</defs>
		<use xlink:href="#SVGID_9_"  style="overflow:visible;fill:#62627F;"/>
		<clipPath id="SVGID_10_">
			<use xlink:href="#SVGID_9_"  style="overflow:visible;"/>
		</clipPath>
		<path class="st24" d="M651.7,388.5c0,0-13.8,57.8-30.1,64.7s47.7,1.7,47.7,1.7l-10.2-66.3L651.7,388.5z"/>
		<path class="st24" d="M600.2,538.4c0,0,8.3,16.2-5.6,30.5c-1.4,1.4,14.3,23.1,8.8,38.6c-5.2,14.8-23.6,23.2-23.6,23.2l53.5-7.4
			l-3.7-61l-22-26.2L600.2,538.4z"/>
	</g>
	<path class="st23" d="M595.8,557.9c-0.8-0.6-2.8,0.8-11.1,0.3c-7-0.4-6.3-1.5-10.4-2.6c-4.1-1-5.3,0.3-3.6,2.1
		c1.8,1.8,5.1,4.4,16.5,3.8C598.4,560.8,598.4,560,595.8,557.9z"/>
	<path class="st25" d="M722.4,623.1c0.5,0.2,21.6,3.4,22.1,3.6c22.4,9.8,25.3,9.2,25.3,9.2c-34.2,26.7-76.1,90-81.7,105.9l-60-6.7
		l1.8-33.3c0,0,34.7-50.6,41.3-57.3l11.1-7.3c0,0,18.5-11.3,25-13.4C712.3,622.1,722.4,623.1,722.4,623.1z"/>
	<g>
		<defs>
			<path id="SVGID_11_" d="M650.2,718c-1.3-2.4,2.3-7.2,3.9-11.3c2.1-5.3-0.3-10.6,3.4-15.6c6.1-8.3-10.9-6.4-31.6,1.2
				c-20.7,7.5-24.8,21.4-24.8,21.4c-59.7,31-65.9,15.7-83.3,45c15.5-29.8-7.9-92.8-8.1-101.6c-0.2-8.8-5.5-47.3-5.5-47.3
				c-35.9,17-75.4,36.8-56.2,102.3c18.6,63.3,34.5,102.5,60.2,96.2c37.4-9.1,62-43.7,73.3-53c6.7-5.5,16-12.6,22.9-18.6
				c22.6-1,42-6.6,42-6.6S653.1,723.4,650.2,718z"/>
		</defs>
		<use xlink:href="#SVGID_11_"  style="overflow:visible;fill:#FCCEA4;"/>
		<clipPath id="SVGID_12_">
			<use xlink:href="#SVGID_11_"  style="overflow:visible;"/>
		</clipPath>
		<path class="st26" d="M517,623.4c-10.3,5.6-46.9,13.6-45.6,30.8s5.6,48.5,10.1,88.5c1.7,14.5,10.8,57.3,24.7,61.6
			c10.4,3.2,37.4-11,37.4-11l-63.7,30.4L431.8,691l16.6-78l43.1-17L517,623.4z"/>
	</g>
	<g>
		<defs>
			<path id="SVGID_13_" d="M505.7,604.7c-4.2-8.1-47.2,11.1-59.5,45.9c-12.3,34.7-4,51.9-4,51.9s59-24.4,77.1-6
				C526.5,703.9,520.9,634,505.7,604.7z"/>
		</defs>
		<use xlink:href="#SVGID_13_"  style="overflow:visible;fill:#F7CD45;"/>
		<clipPath id="SVGID_14_">
			<use xlink:href="#SVGID_13_"  style="overflow:visible;"/>
		</clipPath>
		<path class="st27" d="M517.6,635.9c0,0-41.3-15.5-54.4,14.8c-7.8,18.1-8.1,38.7-8.1,38.7l-24.6,14.1l-0.7-39l54.4-68.4l25,3.6
			L517.6,635.9z"/>
	</g>
	<path class="st13" d="M745.1,626.8c0,0-15.9-6.7-38-2.3c-15.2,3.1-36.7,20.6-36.7,20.6s36.3-29,47.9-8.2
		C724.7,623.4,736.8,625.5,745.1,626.8z"/>
	<polygon class="st2" points="761.5,786.2 836.8,764 922.7,826 841.8,854.4 	"/>
	<g>
		<path class="st19" d="M1051.6,800.9c-25.7-9.8-49.5-5.6-64.4,12s-9.5,25.1-2.6,21.3c6.9-3.7,16.4-9.2,16.4-9.2l27.8,24.9
			l37.7-30.4L1051.6,800.9z"/>
		<path class="st28" d="M1083.8,905.5l61.9-6.2l92.1,27.2l-164.5,103.8l-55.2-1c0,0,13.3-20.7,45.8-108.4
			C1067,912.4,1074.7,906.4,1083.8,905.5z"/>
		<path class="st29" d="M1360.6,870.7l8.9-187.9c0,0-44.9-35.9-76.2-35.9l-82.9,4c-8.8,1.9-14.5,3.3-32.2,10.6
			c-8.6,3.6-48.3,25.6-48,34.9l17.5,193.8l5.6,74.3c0,31.3,86.1,66.8,117.4,66.8l4.2-8.8l43.8,12.1c0,0,22.7-31.4,22.7-62.7
			l-12.6-81.8l22.9,1.2L1360.6,870.7z"/>
		<path class="st19" d="M1192.2,460.5c0,0-12.4,20.4-10.7,35.7c1.7,15.3,1.1,45.5,1.1,45.5s-14.1,19.2-13.6,22.1
			c0.6,2.8,9.1,11.9,9.1,11.9s4.2,37.2,7,40.6c2.8,3.4,24.1,13.2,24.1,13.2l1.1,21.5c0,0,51.2,17.3,89.4-3.4
			c-0.6-22.7,0-135.3,0-135.3l-76.4-25.5L1192.2,460.5z"/>
		<path class="st23" d="M1183.7,523.1c2.4,0,3.2,3.1,3.2,7.4c0,4.3-0.8,8.3-3.3,8.3s-4.4-3.5-4.4-7.9
			C1179.3,526.6,1181.3,523.1,1183.7,523.1z"/>
		<g>
			<path class="st30" d="M1331.8,576l10.6-70.5l-0.8-66l-93.1-20.1c0,0-8.5,10.6-17,11.6c-7.8,1-39.6-8.8-44.6-10.3
				c-1.5,9.3-0.3,21.5,1.2,37.4c0.8,8.6,23.2,20.1,23.2,20.1l-10.8,51.2c29.8-8,20.1,20.3,9.6,40.1c0.5,51.5,40.4,53.7,53.4,54.3
				c13.3,0.8,44.7-2.4,44.7-2.4C1308.7,615.7,1330.6,583.5,1331.8,576z"/>
			<path class="st10" d="M1231.5,431c8.5-1.1,17.5-9.6,17.5-9.6s76.2,34.6,83.8,27c3.9,24.3-3.5,134.1-3.5,134.1
				c13.6-22.7,27.5-126.2,27.5-126.2s-6.7-6.9-4.1-15.2c2.5-8.3-20.8-25.2-20.8-25.2l-6.4,6.9c-5.3,7.5-97.3-21.8-97.3-21.8
				s-3.8,12.2-7.1,14.5c-7,4.8-24.6,3.3-24.6,3.3s-9.5,0.2-9.7,1.9C1191.9,422.3,1223.7,432,1231.5,431z"/>
		</g>
		<path class="st25" d="M1310.3,651.7l-105,13.6c0,0-1.8-22,2.8-26.6c51.2,19.1,91.2-2.3,91.2-2.3L1310.3,651.7z"/>
		<path class="st14" d="M1199.7,649.7c-6.3,2-19,7.8-27.7,11.9c-4.3,2-4,8.3,0.5,9.9c9.9,3.5,24,5.6,25.9,6.2
			c45.2,15.2,105-2.3,127.8-10.2c4.1-1.4,5-6.8,1.6-9.5l-18.4-14.3c-0.8-0.7-2-0.7-2.9-0.2c-9.2,5-58.7,29.7-104.7,6.4
			C1201.1,649.6,1200.3,649.5,1199.7,649.7z"/>
		<polygon class="st28" points="1279.3,916.8 1274.8,990.8 1291.4,994.5 		"/>
		<path class="st25" d="M1070.7,816.3c-4.3-6-12.1-12.8-12.1-12.8s-51.1,7.2-37.8,44.6c12.8,18.9,30.2,24.9,30.2,24.9L1070.7,816.3z
			"/>
		<path class="st29" d="M1198.6,856.6l-127-47.9c0,0-45.2,2.1-38.9,54c14.8,31.2,167.1,53.4,167.1,53.4L1198.6,856.6z"/>
		<circle class="st23" cx="1047.5" cy="857.1" r="5.5"/>
		<circle class="st23" cx="1069.1" cy="868.2" r="5.5"/>
		<polygon class="st28" points="1193.1,745.6 1199.7,916.1 1211.3,907.4 		"/>
		<path class="st30" d="M1193.6,502.6l-10.8-4.3c-2.6-1-3.9-4-2.8-6.6l0,0c1-2.6,0.6-5.2,3.2-4.2l14.2,5.6c2.6,1,2.9,6.5,1.9,9l0,0
			C1198.2,504.8,1196.1,503.6,1193.6,502.6z"/>
	</g>
	<path class="st15" d="M1456.7,1040.9l230.6-525.9c0,0-9.8-11.8-89.3-12.5c-173.1-1.6-266.6,417-293.7,447.3
		c-70.6,79.2-223.3-117.4-263.7,78.4"/>
	<path class="st12" d="M644.8,807.6c0,0-23.6,5.2-20,8.2c3.6,3,63.2,2.5,75,0.7s25.9-5.7,25.9-5.7L644.8,807.6z"/>
	<path class="st28" d="M1613.7,544.7c-173.1,0-287.7,380.6-312.3,413c-73.5,96.8-244.5-108.4-274.1,71.6l429.4,11.6l212.2-486.7
		C1668.9,554.3,1648.4,544.7,1613.7,544.7z"/>
	<path class="st15" d="M667.6,816h-22.1c-2.1,0-3.9-1.7-3.9-3.9v-1.4c0-2.1,1.7-3.9,3.9-3.9h22.1c2.1,0,3.9,1.7,3.9,3.9v1.4
		C671.4,814.3,669.7,816,667.6,816z"/>
	<path class="st15" d="M718.9,813.2H669c-1.7,0-3.1-1.4-3.1-3.1l0,0c0-1.7,1.4-3.1,3.1-3.1h49.9c1.7,0,3.1,1.4,3.1,3.1l0,0
		C722,811.8,720.6,813.2,718.9,813.2z"/>
	<path class="st13" d="M719.3,807l10.2,2.9v0.9l-10.6,2.3C718.9,813.2,718.2,807.8,719.3,807"/>
	<path class="st31" d="M1043.5,634.3c0,0-0.2-0.2-0.4-0.2c0,0-9.3,18.3-5.2,23"/>
	<g>
		<path class="st14" d="M962.5,607.4c-14.6,22.4-13.8,111.8-3.4,124.8c4.5,5.7,13.4,6.5,21.9,5.6c13.1-1.4,17.5-29.7,20.9-47.1
			c5.4-28.6,8.9-63.1,6.6-84.1c-1.2-10.7-6.3-17.8-11-20.1C983,579.3,971.8,593.2,962.5,607.4z"/>
		<path class="st15" d="M983.2,581.9c-10.3,0.1-28.3,3.4-33.8,24.9c-5.5,21.5-4.5,63.1-25,68.2c-6.6,1.6-1.6,38.3,1.8,45.2
			c3.4,6.9,29.6,16.2,36.4,16.9s12.6,1.1,12.6,1.1s-4-1.6-7.4-13.8c-3.4-12.3-6.7-148.3,29.8-137.9
			C997.6,586.5,992.6,581.9,983.2,581.9z"/>
		<path class="st31" d="M941.1,645.5c0,0-0.5-0.1-1-0.1c0,0-6.4,22.9,6.3,26.3"/>
		<path class="st31" d="M944.8,623.6c0,0-0.5-0.1-1-0.1c0,0-6.4,22.9,6.3,26.3"/>
		<path class="st29" d="M999.7,640.9l-29.1-6.1c-2.7-0.6-4.5-3.5-4-6.5l0.3-1.8c0.5-3,3.1-5,5.8-4.5l29.1,6.1c2.7,0.6,4.5,3.5,4,6.5
			l-0.3,1.8C1005,639.4,1002.4,641.4,999.7,640.9z"/>
		<path class="st29" d="M994.1,701.9l-30.4-6.3c-2.8-0.6-4.6-3.6-4.1-6.7l0.3-1.6c0.5-3.1,3.2-5.2,5.9-4.6l30.4,6.3
			c2.8,0.6,4.6,3.6,4.1,6.7l-0.3,1.6C999.5,700.5,996.8,702.5,994.1,701.9z"/>
	</g>
	<path class="st29" d="M1067,699.1l-24.6-14.2c-2.4-1.4-3.2-4.4-1.8-6.8l0.8-1.5c1.4-2.4,4.4-3.2,6.8-1.8l24.6,14.2
		c2.4,1.4,3.2,4.4,1.8,6.8l-0.8,1.5C1072.4,699.7,1069.4,700.5,1067,699.1z"/>
	<path class="st29" d="M1090,656.6l-24.6-14.2c-2.4-1.4-3.2-4.4-1.8-6.8l0.8-1.5c1.4-2.4,4.4-3.2,6.8-1.8l24.6,14.2
		c2.4,1.4,3.2,4.4,1.8,6.8l-0.8,1.5C1095.4,657.2,1092.3,658,1090,656.6z"/>
	<g>
		<path class="st32" d="M559.2,636.6c0,0-6.3,12.9-3,26.2c3.3,13.3,0.7,19.6,0.7,19.6"/>
		<path class="st14" d="M561.1,677.6c-0.3,3.6-2.2,6.4-4.3,6.3c-2.1-0.1-3.6-3.1-3.3-6.7c0.3-3.6,2.2-6.4,4.3-6.3
			C559.9,671,561.4,674,561.1,677.6z"/>
		<path class="st33" d="M560.4,683.3c0.3,1.7-1.2,3.3-3.3,3.6c-2.1,0.2-4-1-4.3-2.7c-0.3-1.7,1.2-3.3,3.3-3.6
			C558.2,680.4,560.1,681.6,560.4,683.3z"/>
	</g>
	<g>
		<path class="st32" d="M596.6,639.2c0,0,15.1,2.6,15,16.3c-0.1,13.7,3.9,19.2,3.9,19.2"/>
		<path class="st14" d="M610.3,671.1c1.1,3.4,3.6,5.7,5.6,5.1s2.8-3.8,1.7-7.3s-3.6-5.7-5.6-5.1S609.2,667.7,610.3,671.1z"/>
		<path class="st33" d="M612.3,676.5c0.1,1.8,1.9,3,4,2.7c2.1-0.3,3.7-1.9,3.5-3.7c-0.1-1.8-1.9-3-4-2.7
			C613.8,673.1,612.2,674.7,612.3,676.5z"/>
	</g>
	<path class="st13" d="M956.3,789.5l-79-7.8c-4.5-0.4-7.7-3.1-7.3-7.6l3.2-22.1c0.4-4.5,4.1-5.6,8.5-5.2l75.5,5c4.5,0.4,6.4,2.5,6,7
		l0.7,23.2C963.5,786.5,960.8,789.9,956.3,789.5z"/>
	<polygon class="st14" points="885.2,749.2 882.5,776 957,782.7 956.1,753.8 	"/>
	<path class="st13" d="M900.5,785.4l-14-1.3c-0.8-0.1-1.4-0.8-1.3-1.6l0,0c0.1-0.8,0.8-1.4,1.6-1.3l14,1.3c0.8,0.1,1.4,0.8,1.3,1.6
		l0,0C902,784.9,901.3,785.5,900.5,785.4z"/>
	<circle class="st34" cx="878.1" cy="761.8" r="3.8"/>
	<g>
		<defs>
			<ellipse id="SVGID_15_" cx="664.8" cy="546.2" rx="24.7" ry="8.6"/>
		</defs>
		<use xlink:href="#SVGID_15_"  style="overflow:visible;fill:#039475;"/>
		<clipPath id="SVGID_16_">
			<use xlink:href="#SVGID_15_"  style="overflow:visible;"/>
		</clipPath>
		<ellipse class="st35" cx="665.8" cy="553.7" rx="24.7" ry="8.6"/>
	</g>
</g>
</svg>
