<?xml version="1.0" encoding="utf-8"?>
<!-- Generator: Adobe Illustrator 21.1.0, SVG Export Plug-In . SVG Version: 6.00 Build 0)  -->
<svg version="1.1" id="Warstwa_1" focusable="false"
	 xmlns="http://www.w3.org/2000/svg" xmlns:xlink="http://www.w3.org/1999/xlink" x="0px" y="0px" viewBox="0 0 25 60"
	 style="enable-background:new 0 0 25 60;" xml:space="preserve">
<style type="text/css">
	.st0{fill:#696E9E;}
	.st1{fill:#FFFFFF;}
</style>
<path class="st0" d="M17,16.9l5.9-6l0,0c2.5-2.5,2.5-6.6,0-9.1c-1.2-1.2-2.8-1.8-4.5-1.8l0,0c-1.7,0-3.3,0.7-4.5,1.8l-2.6,2.6
	c1.4-0.1,3,0.1,4.3,0.7l0.8-0.8c1.1-1.1,2.9-1.1,3.9,0c0.5,0.5,0.8,1.2,0.8,2s-0.3,1.4-0.8,2l-6,6c-0.1,0.1-0.1,0.1-0.3,0.3
	c-1.1,0.8-2.8,0.8-3.7-0.3c-0.3-0.3-0.5-0.5-0.7-0.9l-2.6,2.6c0.3,0.3,0.4,0.5,0.7,0.8c0.4,0.4,0.9,0.8,1.3,1.1
	C11.7,19.4,14.9,19,17,16.9C17,17,17,17,17,16.9z"/>
<path class="st0" d="M15.4,7.1c-0.9-0.5-2-0.8-3.2-0.8c-1.6,0-3.2,0.7-4.3,1.7l-6,6c-2.5,2.5-2.5,6.6,0,9.1C2.9,24.3,4.5,25,6.2,25
	s3.3-0.7,4.5-1.8l2.6-2.6c-1.4,0.1-3-0.1-4.3-0.7l-0.8,0.8c-1.1,1.1-2.8,1.1-3.9,0c-0.5-0.5-0.8-1.2-0.8-2s0.3-1.4,0.8-2
	c6.2-6.2,6.2-6.2,6.3-6.2c0.9-0.8,2.6-0.8,3.7,0.3c0.3,0.3,0.5,0.5,0.7,0.9l2.6-2.6c-0.3-0.3-0.4-0.5-0.7-0.8
	C16.3,7.8,15.9,7.4,15.4,7.1z"/>
<path class="st1" d="M17,51.9l5.9-6l0,0c2.5-2.5,2.5-6.6,0-9.1c-1.2-1.2-2.8-1.8-4.5-1.8l0,0c-1.7,0-3.3,0.7-4.5,1.8l-2.6,2.6
	c1.4-0.1,3,0.1,4.3,0.7l0.8-0.8c1.1-1.1,2.9-1.1,3.9,0c0.5,0.5,0.8,1.2,0.8,2s-0.3,1.4-0.8,2l-6,6c-0.1,0.1-0.1,0.1-0.3,0.3
	c-1.1,0.8-2.8,0.8-3.7-0.3c-0.3-0.3-0.5-0.5-0.7-0.9L7.1,51c0.3,0.3,0.4,0.5,0.7,0.8c0.4,0.4,0.9,0.8,1.3,1.1
	C11.7,54.4,14.9,54,17,51.9C17,52.1,17,52.1,17,51.9z"/>
<path class="st1" d="M15.4,42.2c-0.9-0.5-2-0.8-3.2-0.8c-1.6,0-3.2,0.7-4.3,1.7l-6,6c-2.5,2.5-2.5,6.6,0,9.1
	c1.1,1.2,2.6,1.8,4.3,1.8s3.3-0.7,4.5-1.8l2.6-2.6c-1.4,0.1-3-0.1-4.3-0.7l-0.8,0.8c-1.1,1.1-2.8,1.1-3.9,0c-0.5-0.5-0.8-1.2-0.8-2
	c0-0.8,0.3-1.4,0.8-2c6.2-6.2,6.2-6.2,6.3-6.2c0.9-0.8,2.6-0.8,3.7,0.3c0.3,0.3,0.5,0.5,0.7,0.9l2.6-2.6c-0.3-0.3-0.4-0.5-0.7-0.8
	C16.3,42.9,15.9,42.5,15.4,42.2z"/>
</svg>
