<?xml version="1.0" encoding="utf-8"?>
<!-- Generator: Adobe Illustrator 21.1.0, SVG Export Plug-In . SVG Version: 6.00 Build 0)  -->
<svg version="1.1" id="Warstwa_1" xmlns="http://www.w3.org/2000/svg" xmlns:xlink="http://www.w3.org/1999/xlink" x="0px" y="0px"
	 viewBox="0 0 25 60" style="enable-background:new 0 0 25 60;" xml:space="preserve">
<style type="text/css">
	.st0{fill:#696E9F;}
	.st1{fill:#FFFFFF;}
</style>
<path class="st0" d="M24.4,21.3l-5-5c-0.3-0.3-0.7-0.5-1.1-0.5C21,12,20.6,6.5,17.2,3.1c-1.9-1.9-4.4-2.9-7.1-2.9
	c-2.7,0-5.2,1-7.1,2.9C1.1,5,0.1,7.5,0.1,10.2s1,5.2,2.9,7.1c1.9,1.9,4.4,2.9,7.1,2.9c2.1,0,4-0.6,5.7-1.8c0,0.4,0.2,0.8,0.5,1.1
	l5,5c0.3,0.3,0.7,0.5,1.2,0.5c0.4,0,0.9-0.2,1.2-0.5l0.8-0.8C25.1,23,25.1,22,24.4,21.3z M14.4,5.9c2.4,2.4,2.4,6.2,0,8.6
	c-1.1,1.1-2.7,1.8-4.3,1.8c-1.6,0-3.2-0.6-4.3-1.8C4.7,13.3,4,11.8,4,10.2C4,8.5,4.7,7,5.8,5.9c1.1-1.1,2.7-1.8,4.3-1.8
	C11.7,4.1,13.2,4.7,14.4,5.9z"/>
<path class="st1" d="M24.4,56.4l-5-5c-0.3-0.3-0.7-0.5-1.1-0.5c2.7-3.9,2.3-9.3-1.2-12.8c-1.9-1.9-4.4-2.9-7.1-2.9
	c-2.7,0-5.2,1-7.1,2.9c-1.9,1.9-2.9,4.4-2.9,7.1c0,2.7,1,5.2,2.9,7.1c1.9,1.9,4.4,2.9,7.1,2.9c2.1,0,4-0.6,5.7-1.8
	c0,0.4,0.2,0.8,0.5,1.1l5,5c0.3,0.3,0.7,0.5,1.2,0.5c0.4,0,0.9-0.2,1.2-0.5l0.8-0.8C25.1,58.1,25.1,57,24.4,56.4z M14.4,40.9
	c2.4,2.4,2.4,6.2,0,8.6c-1.1,1.1-2.7,1.8-4.3,1.8c-1.6,0-3.2-0.6-4.3-1.8C4.7,48.3,4,46.8,4,45.2c0-1.6,0.6-3.2,1.8-4.3
	c1.1-1.1,2.7-1.8,4.3-1.8C11.7,39.1,13.2,39.7,14.4,40.9z"/>
</svg>
