<svg id="Warstwa_1" data-name="Warstwa 1" xmlns="http://www.w3.org/2000/svg" viewBox="0 0 45 40"><defs><style>.cls-1{fill:#fff;}</style></defs><title>star</title><path class="cls-1" d="M42.86,16.82,34,25.44l2.09,12.17a3.29,3.29,0,0,1,0,.49c0,.63-.29,1.22-1,1.22a2,2,0,0,1-1-.29L23.25,33.27,12.32,39a2.06,2.06,0,0,1-1,.29c-.71,0-1-.58-1-1.22a3.33,3.33,0,0,1,0-.49l2.09-12.17L3.61,16.82A1.89,1.89,0,0,1,3,15.66c0-.73.75-1,1.36-1.12l12.22-1.78L22.06,1.69c.22-.46.63-1,1.19-1s1,.54,1.19,1l5.47,11.07,12.22,1.78c.58.1,1.36.39,1.36,1.12A1.81,1.81,0,0,1,42.86,16.82Z"/></svg>