<?xml version="1.0" encoding="utf-8"?>
<!-- Generator: Adobe Illustrator 21.1.0, SVG Export Plug-In . SVG Version: 6.00 Build 0)  -->
<svg version="1.1" id="Warstwa_1" focusable="false"
	 xmlns="http://www.w3.org/2000/svg" xmlns:xlink="http://www.w3.org/1999/xlink" x="0px" y="0px" viewBox="0 0 25 60"
	 style="enable-background:new 0 0 25 60;" xml:space="preserve">
<style type="text/css">
	.st0{fill:#696E9E;}
	.st1{fill:#FFFFFF;}
</style>
<path class="st0" d="M25,4.9c-0.6,1-1.5,1.9-2.5,2.5c0,0.1,0,0.1,0,0.4c0,0.1,0,0.3,0,0.4c0,1.4-0.3,2.7-0.6,4.1s-1,2.7-1.8,3.8
	c-0.8,1.3-1.8,2.3-2.9,3.3c-1.1,0.9-2.4,1.7-4.1,2.3c-1.5,0.5-3.2,0.9-5.1,0.9c-2.8,0-5.3-0.8-7.6-2.3c0.5,0,0.9,0,1.1,0
	c2.3,0,4.5-0.8,6.2-2.2c-1.1,0-2-0.4-2.9-1c-0.9-0.6-1.4-1.5-1.8-2.5c0.3,0.1,0.6,0.1,1,0.1c0.5,0,0.9-0.1,1.3-0.3
	c-1.1-0.3-2.2-0.8-2.9-1.8c-0.5-0.8-0.9-1.8-0.9-3.1l0,0c0.6,0.4,1.4,0.5,2.3,0.5C3,9.7,2.5,9.1,2.1,8.3C1.7,7.6,1.4,6.8,1.4,6.1
	c0-0.9,0.3-1.7,0.6-2.5C3.4,5,4.9,6.3,6.7,7.2s3.7,1.4,5.9,1.5c-0.1-0.5-0.1-0.9-0.1-1.1c0-1.4,0.5-2.5,1.5-3.6s2.2-1.5,3.6-1.5
	c0.6,0,1.4,0.1,2,0.4c0.6,0.3,1.1,0.6,1.7,1.1c1.1-0.3,2.2-0.6,3.2-1.3c-0.4,1.1-1.1,2.2-2.2,2.8C23.1,5.5,24.1,5.3,25,4.9L25,4.9z"
	/>
<path class="st1" d="M25,40c-0.6,1-1.5,1.9-2.5,2.5c0,0.1,0,0.1,0,0.4c0,0.1,0,0.3,0,0.4c0,1.4-0.3,2.7-0.6,4.1s-1,2.7-1.8,3.8
	c-0.8,1.3-1.8,2.3-2.9,3.3c-1.1,0.9-2.4,1.7-4.1,2.3c-1.5,0.5-3.2,0.9-5.1,0.9c-2.8,0-5.3-0.8-7.6-2.3c0.5,0,0.9,0,1.1,0
	c2.3,0,4.5-0.8,6.2-2.2c-1.1,0-2-0.4-2.9-1c-0.9-0.6-1.4-1.5-1.8-2.5c0.3,0.1,0.6,0.1,1,0.1c0.5,0,0.9-0.1,1.3-0.3
	c-1.1-0.3-2.2-0.8-2.9-1.8C1.8,47,1.4,46,1.4,44.7l0,0c0.6,0.4,1.4,0.5,2.3,0.5c-0.8-0.4-1.3-1-1.7-1.8s-0.6-1.5-0.6-2.3
	c0-0.9,0.3-1.7,0.6-2.5c1.3,1.5,2.8,2.8,4.6,3.7c1.8,0.9,3.7,1.4,5.9,1.5c-0.1-0.5-0.1-0.9-0.1-1.1c0-1.4,0.5-2.5,1.5-3.6
	c1-1,2.2-1.5,3.6-1.5c0.6,0,1.4,0.1,2,0.4c0.6,0.3,1.1,0.6,1.7,1.1c1.1-0.3,2.2-0.6,3.2-1.3C24,39,23.2,40,22.2,40.6
	C23.1,40.6,24.1,40.4,25,40L25,40z"/>
</svg>
