<?xml version="1.0" encoding="utf-8"?>
<!-- Generator: Adobe Illustrator 21.1.0, SVG Export Plug-In . SVG Version: 6.00 Build 0)  -->
<svg version="1.1" id="Warstwa_1" focusable="false"
	 xmlns="http://www.w3.org/2000/svg" xmlns:xlink="http://www.w3.org/1999/xlink" x="0px" y="0px" viewBox="0 0 25 60"
	 style="enable-background:new 0 0 25 60;" xml:space="preserve">
<style type="text/css">
	.st0{fill:#696E9E;}
	.st1{fill:#FFFFFF;}
</style>
<path class="st0" d="M0,19.8c0,1,0.4,1.8,1,2.6s1.5,1.1,2.4,1.1h18.2c1,0,1.7-0.4,2.4-1.1c0.7-0.7,1-1.6,1-2.6V5.2
	c0-1-0.4-1.8-1-2.6c-0.6-0.7-1.5-1.1-2.4-1.1H3.4C2.4,1.6,1.7,2,1,2.7S0,4.3,0,5.2V19.8z M9.1,17.2V7.9c0-0.1,0-0.1,0.1-0.2h0.1h0.1
	l8.8,4.6c0,0,0.1,0.1,0.1,0.2c0,0,0,0.1-0.1,0.1l-8.8,4.6c0,0,0,0-0.1,0H9.3C9.1,17.2,9.1,17.2,9.1,17.2z"/>
<path class="st1" d="M0,54.8c0,1,0.4,1.8,1,2.6s1.5,1.1,2.4,1.1h18.2c1,0,1.7-0.4,2.4-1.1c0.7-0.7,1-1.6,1-2.6V40.2
	c0-1-0.4-1.8-1-2.6c-0.6-0.7-1.5-1.1-2.4-1.1H3.4c-1,0-1.7,0.4-2.4,1.1c-0.7,0.7-1,1.6-1,2.6V54.8z M9.1,52.2v-9.3
	c0-0.1,0-0.1,0.1-0.2h0.1h0.1l8.8,4.6c0,0,0.1,0.1,0.1,0.2c0,0,0,0.1-0.1,0.1l-8.8,4.6c0,0,0,0-0.1,0H9.3
	C9.1,52.2,9.1,52.2,9.1,52.2z"/>
</svg>
